PathFileType	4	(X/Y/Z)	s05c0303.trc
DataRate	CameraRate	NumFrames	NumMarkers	Units	OrigDataRate	OrigDataStartFrame	OrigNumFrames
200	200	4	48	mm	200	1750	2000
Frame#	Time	racr			lacr			c7			jug			rlel			rdr			llel			ldr			s2			lic			ric			lasi			rasi			rpsi			lpsi			rgt			lgt			rth1			rth2			rth3			rth4			rlfc			rsh1			rsh2			rsh3			rsh4			rlmal			rcal			rtoe			rmt5			rmt1			lth1			lth2			lth4			lth3			llfc			lmfc			lsh1			lsh2			lsh3			lsh4			llmal			lcal			ltoe			lmt5			SBIKE			LBIKE			RBIKE			
		X1	Y1	Z1	X2	Y2	Z2	X3	Y3	Z3	X4	Y4	Z4	X5	Y5	Z5	X6	Y6	Z6	X7	Y7	Z7	X8	Y8	Z8	X9	Y9	Z9	X10	Y10	Z10	X11	Y11	Z11	X12	Y12	Z12	X13	Y13	Z13	X14	Y14	Z14	X15	Y15	Z15	X16	Y16	Z16	X17	Y17	Z17	X18	Y18	Z18	X19	Y19	Z19	X20	Y20	Z20	X21	Y21	Z21	X22	Y22	Z22	X23	Y23	Z23	X24	Y24	Z24	X25	Y25	Z25	X26	Y26	Z26	X27	Y27	Z27	X28	Y28	Z28	X29	Y29	Z29	X30	Y30	Z30	X31	Y31	Z31	X32	Y32	Z32	X33	Y33	Z33	X34	Y34	Z34	X35	Y35	Z35	X36	Y36	Z36	X37	Y37	Z37	X38	Y38	Z38	X39	Y39	Z39	X40	Y40	Z40	X41	Y41	Z41	X42	Y42	Z42	X43	Y43	Z43	X44	Y44	Z44	X45	Y45	Z45	X46	Y46	Z46	X47	Y47	Z47	X48	Y48	Z48	
1750	8.7500	762.454902	1229.487091	-209.900935	715.060463	1235.263692	-501.205185	739.888413	1312.958415	-360.678556	661.239028	1161.298516	-346.220360	614.454052	1103.153414	10.261096	692.141185	912.296866	-83.281473	465.934473	1064.628686	-570.190565	662.232149	931.260819	-488.010462	159.307178	1258.538065	-227.416685	261.122702	1257.078853	-403.405430	333.942258	1223.814401	-129.941613	298.581062	1191.018930	-379.734683	348.846835	1157.555313	-167.228123	215.109490	1289.876419	-195.479462	196.647516	1306.241803	-277.790533	263.894675	1106.079199	-100.278716	172.816435	1179.618458	-422.503701	321.125215	1006.037052	-103.483147	376.072260	936.046684	-108.542113	387.127589	848.647913	-110.042096	406.079367	949.392906	-126.051241	429.286135	705.994915	-132.458142	335.606842	652.882034	-98.208102	285.163611	580.368350	-105.589836	209.188869	539.988865	-102.763656	304.081396	560.420459	-133.282561	107.932254	448.181122	-104.730686	53.230245	497.358152	-150.761463	123.340286	209.336091	-160.129633	71.915738	295.382248	-90.640655	0.000000	0.000000	-0.000000	251.215873	1061.107453	-466.249804	324.503842	1018.972651	-481.446488	353.123195	1042.553177	-473.435463	366.848210	940.265454	-495.229471	456.382930	816.049527	-480.913484	476.008191	802.610331	-370.986209	380.112893	706.792040	-485.439580	365.515706	621.640019	-471.516239	307.941330	555.512111	-457.479746	398.778726	610.152314	-455.181063	263.227416	448.043920	-440.183407	199.397835	419.793600	-392.241319	479.062424	338.648924	-410.216359	365.537323	330.343849	-469.058193	-172.677457	897.874471	-277.031218	-52.926210	79.245231	-474.089240	-52.893588	79.402469	-76.417735	
1751	8.7550	762.648095	1231.125703	-208.982559	715.991968	1233.415569	-500.908819	739.961165	1312.864230	-360.644855	662.341502	1160.686845	-345.226596	614.440537	1103.410270	9.889470	692.173155	912.077907	-83.327754	465.749451	1063.778008	-570.610442	662.106564	931.223589	-487.887514	159.834733	1257.970148	-220.211440	261.386666	1253.779696	-404.659567	333.388321	1223.977243	-130.678224	298.892075	1188.037125	-380.009218	347.946662	1157.221688	-167.768893	214.328469	1288.916533	-196.730582	195.988557	1304.027148	-279.238734	266.339578	1106.570761	-98.354890	172.355457	1176.032068	-422.765989	322.541356	1006.573631	-102.852981	379.114380	937.691240	-106.944067	391.882007	850.547667	-108.895115	408.565677	951.680835	-125.233930	435.856609	708.965459	-132.515141	341.264995	657.134719	-98.237577	289.510458	585.701483	-105.795839	212.647346	546.875817	-103.324362	308.088504	565.405504	-133.488906	109.809456	458.048773	-104.951216	55.691444	508.007192	-150.892194	122.143589	218.999462	-160.212249	71.888461	305.874339	-90.660725	0.000000	0.000000	-0.000000	249.706482	1056.041199	-465.520651	322.170113	1012.497177	-480.209847	351.093364	1036.199439	-473.482832	363.226798	932.967959	-493.089179	451.126248	808.222016	-478.173062	469.445303	794.601070	-368.907686	375.578377	698.637056	-483.830079	362.380316	613.201994	-470.689324	305.853316	545.963441	-457.408102	395.801776	601.950672	-454.570656	263.064357	436.612723	-440.469395	199.127662	407.836859	-392.696784	479.499039	328.190062	-409.906978	366.071554	319.265079	-468.906280	-172.766246	897.960516	-276.948860	-52.896329	79.251708	-474.070848	-52.876240	79.372634	-76.421150	
1752	8.7600	762.961136	1232.336311	-208.223388	717.145354	1231.698645	-500.427979	740.433611	1313.119354	-360.772755	663.479003	1160.326538	-344.113128	614.137134	1103.630563	9.434218	692.112684	911.914848	-83.369763	465.810515	1063.268842	-571.387188	661.920872	931.196686	-487.857038	159.271152	1256.407882	-221.390875	261.716831	1250.522594	-405.997013	332.628671	1223.985520	-131.573858	299.513081	1185.143416	-380.738559	347.104168	1156.979750	-168.190769	213.398668	1287.776735	-198.245262	195.436167	1301.736881	-281.074100	265.977767	1106.614135	-98.047337	172.305480	1172.286291	-423.280704	323.706167	1006.815817	-101.812050	382.179255	939.403902	-106.662940	396.501319	852.435302	-108.099575	411.019675	953.967775	-124.137697	442.289239	712.054943	-132.431104	346.964662	661.711911	-98.204602	293.812853	591.429894	-105.858343	216.011402	554.159491	-103.905233	311.995937	570.665727	-133.574905	111.681051	468.079706	-105.109289	58.176046	518.679903	-150.996845	121.979996	229.199319	-160.264048	72.413454	316.300263	-90.705661	0.000000	0.000000	-0.000000	248.490925	1050.983620	-465.134546	320.220664	1005.856644	-478.827448	349.414191	1029.493524	-473.137682	359.935258	925.509912	-490.656624	446.031306	800.353828	-475.061591	463.413963	786.462533	-365.675350	371.044701	690.882140	-481.863558	359.070370	605.123932	-469.544984	303.569909	536.900663	-457.288013	392.676134	594.183440	-453.855363	262.330853	425.503626	-440.483856	198.637959	396.629589	-393.121151	479.213831	316.968032	-409.394950	365.915136	308.294916	-468.762159	-172.778896	897.956023	-276.539404	-52.881212	79.245808	-474.083353	-52.850752	79.365529	-76.422594	
1753	8.7650	763.159474	1233.506577	-207.331438	718.416600	1230.148849	-499.808471	740.594909	1313.102373	-360.557706	665.173087	1159.575307	-343.004198	613.513940	1103.767704	8.947624	691.943750	911.761050	-83.540808	466.146086	1062.967094	-572.515868	661.707970	931.177080	-488.000497	158.219209	1253.328230	-232.061949	262.289772	1247.194346	-407.617632	331.704914	1223.955715	-132.518338	300.203374	1182.155076	-381.519200	346.156303	1156.726899	-168.665700	212.470758	1286.354683	-200.037174	194.974958	1299.317271	-283.209720	265.254573	1106.473229	-98.040424	172.552305	1168.387760	-424.005166	325.294470	1006.856618	-100.503425	385.038698	940.593242	-106.122047	401.202859	854.498570	-107.119448	413.531922	956.342247	-122.977072	448.743050	715.415183	-132.224064	352.609509	666.774758	-98.078533	297.962599	597.452290	-105.897938	219.606544	561.755629	-104.253275	316.008367	576.268451	-133.442190	113.673135	478.374809	-105.271526	60.747421	529.274866	-151.144752	122.472111	239.442471	-160.398799	73.436295	326.908945	-90.830178	0.000000	0.000000	-0.000000	247.620729	1045.586012	-464.576701	318.499045	999.056240	-477.466274	348.353111	1020.986741	-469.332552	356.796560	917.772272	-488.120211	440.958718	792.426418	-471.524363	456.986661	778.140586	-362.231871	366.524057	683.235106	-479.457386	355.577873	597.203044	-468.041463	300.942026	528.181106	-456.965043	389.454565	586.259724	-452.638328	261.283755	414.642592	-440.234314	197.365216	386.447902	-394.308347	478.305759	305.762545	-408.978556	365.073050	297.470671	-468.523644	-172.834129	897.949610	-277.060263	-52.894990	79.221797	-474.097611	-52.849396	79.361668	-76.423230	
